 <svg  version="1.0" xmlns="http://www.w3.org/2000/svg"  width="300.000000pt" height="300.000000pt" viewBox="0 0 300.000000 300.000000"  preserveAspectRatio="xMidYMid meet">  <g transform="translate(0.000000,300.000000) scale(0.100000,-0.100000)" fill="#009900" stroke="none"> <path d="M2225 2249 c-25 -12 -222 -202 -535 -514 l-495 -495 -195 195 c-215 215 -238 231 -333 223 -149 -12 -239 -183 -164 -310 14 -24 149 -165 299 -315 281 -279 311 -303 386 -303 96 0 78 -16 705 609 425 424 594 598 609 631 25 51 27 118 5 171 -44 106 -181 159 -282 108z"/> </g> </svg> 